<svg xmlns="http://www.w3.org/2000/svg" xmlns:xlink="http://www.w3.org/1999/xlink" width="128" height="128" version="1.1" viewBox="0 0 128 128"><defs><linearGradient id="linear0" x1="42" x2="42" y1="290" y2="274" gradientTransform="matrix(0.4,0,0,1,38.400002,-172)" gradientUnits="userSpaceOnUse"><stop offset="0" style="stop-color:#3d3846;stop-opacity:1"/><stop offset="1" style="stop-color:#9a9996;stop-opacity:1"/></linearGradient><linearGradient id="linear1" x1="66" x2="66" y1="284" y2="288" gradientTransform="matrix(1,0,0,1,10,-168.000006)" gradientUnits="userSpaceOnUse"><stop offset="0" style="stop-color:#c0bfbc;stop-opacity:1"/><stop offset="1" style="stop-color:#77767b;stop-opacity:1"/></linearGradient><linearGradient id="linear2" x1="48" x2="464" y1="90.857" y2="90.857" gradientTransform="matrix(0.269231,0,0,0.0744681,-4.923077,85.234039)" gradientUnits="userSpaceOnUse"><stop offset="0" style="stop-color:#5e5c64;stop-opacity:1"/><stop offset=".036" style="stop-color:#c0bfbc;stop-opacity:1"/><stop offset=".071" style="stop-color:#77767b;stop-opacity:1"/><stop offset=".929" style="stop-color:#77767b;stop-opacity:1"/><stop offset=".964" style="stop-color:#c0bfbc;stop-opacity:1"/><stop offset="1" style="stop-color:#5e5c64;stop-opacity:1"/></linearGradient><linearGradient id="linear3" x1="-106.24" x2="-21.76" y1="-208.824" y2="-251.176" gradientTransform="matrix(-1.041667,0,0,-1.133333,-2.666677,-200.666641)" gradientUnits="userSpaceOnUse"><stop offset="0" style="stop-color:#0a85e1;stop-opacity:1"/><stop offset=".198" style="stop-color:#30b5e5;stop-opacity:1"/><stop offset=".293" style="stop-color:#1ccfdc;stop-opacity:1"/><stop offset=".506" style="stop-color:#fbf6a3;stop-opacity:1"/><stop offset=".69" style="stop-color:#eb5ec3;stop-opacity:1"/><stop offset=".853" style="stop-color:#5150e7;stop-opacity:1"/><stop offset="1" style="stop-color:#1a1ebd;stop-opacity:1"/></linearGradient><filter id="alpha" width="100%" height="100%" x="0%" y="0%" filterUnits="objectBoundingBox"><feColorMatrix in="SourceGraphic" type="matrix" values="0 0 0 0 1 0 0 0 0 1 0 0 0 0 1 0 0 0 1 0"/></filter><mask id="mask0"><g filter="url(#alpha)"><rect width="128" height="128" x="0" y="0" style="fill:#000;fill-opacity:.35;stroke:none"/></g></mask><clipPath id="clip1"><rect width="192" height="152" x="0" y="0"/></clipPath><g id="surface14588" clip-path="url(#clip1)"><path style="stroke:none;fill-rule:nonzero;fill:#3d3846;fill-opacity:1" d="M 170 27 L 176 27 L 176 20 L 170 20 Z M 170 27"/></g></defs><g id="surface14584"><path style="stroke:none;fill-rule:nonzero;fill:url(#linear0)" d="M 52 92 L 76 92 L 76 118 L 52 118 Z M 52 92"/><path style="stroke:none;fill-rule:nonzero;fill:url(#linear1)" d="M 48 116 L 80.0625 116 C 82 116 84 118 84 120 L 44 120 C 44 118 46 116 48 116 Z M 48 116"/><path style="stroke:none;fill-rule:nonzero;fill:url(#linear2)" d="M 16 76 L 112 76 C 116.417969 76 120 79.582031 120 84 L 120 96 C 120 100.417969 116.417969 104 112 104 L 16 104 C 11.582031 104 8 100.417969 8 96 L 8 84 C 8 79.582031 11.582031 76 16 76 Z M 16 76"/><path style="stroke:none;fill-rule:nonzero;fill:#c0bfbc;fill-opacity:1" d="M 16 20 L 112 20 C 116.417969 20 120 23.582031 120 28 L 120 92 C 120 96.417969 116.417969 100 112 100 L 16 100 C 11.582031 100 8 96.417969 8 92 L 8 28 C 8 23.582031 11.582031 20 16 20 Z M 16 20"/><path style="stroke:none;fill-rule:nonzero;fill:#241f31;fill-opacity:1" d="M 16.363281 96 L 111.636719 96 C 114.046875 96 116 94.210938 116 92 L 116 28 C 116 25.789062 114.046875 24 111.636719 24 L 16.363281 24 C 13.953125 24 12 25.789062 12 28 L 12 92 C 12 94.210938 13.953125 96 16.363281 96 Z M 16.363281 96"/><path style="stroke:none;fill-rule:nonzero;fill:url(#linear3)" d="M 112 94 L 16 94 C 14.894531 94 14 93.105469 14 92 L 14 28 C 14 26.894531 14.894531 26 16 26 L 112 26 C 113.105469 26 114 26.894531 114 28 L 114 92 C 114 93.105469 113.105469 94 112 94 Z M 112 94"/><path style="stroke:none;fill-rule:nonzero;fill:#fff;fill-opacity:1" d="M 90 44.011719 C 85.609375 44.011719 82 47.621094 82 52.011719 C 82 56.402344 85.609375 60.011719 90 60.011719 C 94.390625 60.011719 98 56.402344 98 52.011719 C 98 47.621094 94.390625 44.011719 90 44.011719 Z M 90 44.011719"/><path style="stroke:none;fill-rule:nonzero;fill:#fff;fill-opacity:1" d="M 89 36 L 91 36 C 91.554688 36 92 36.445312 92 37 L 92 41 C 92 41.554688 91.554688 42 91 42 L 89 42 C 88.734375 42 88.480469 41.894531 88.292969 41.707031 C 88.105469 41.519531 88 41.265625 88 41 L 88 37 C 88 36.445312 88.445312 36 89 36 Z M 89 62 L 91 62 C 91.554688 62 92 62.445312 92 63 L 92 67 C 92 67.554688 91.554688 68 91 68 L 89 68 C 88.734375 68 88.480469 67.894531 88.292969 67.707031 C 88.105469 67.519531 88 67.265625 88 67 L 88 63 C 88 62.445312 88.445312 62 89 62 Z M 77.980469 41.394531 L 79.394531 39.980469 C 79.582031 39.792969 79.835938 39.6875 80.101562 39.6875 C 80.367188 39.6875 80.621094 39.792969 80.808594 39.980469 L 83.636719 42.808594 C 83.824219 42.996094 83.929688 43.25 83.929688 43.515625 C 83.929688 43.78125 83.824219 44.035156 83.636719 44.222656 L 82.222656 45.636719 C 82.035156 45.824219 81.78125 45.929688 81.515625 45.929688 C 81.25 45.929688 80.996094 45.824219 80.808594 45.636719 L 77.980469 42.808594 C 77.792969 42.621094 77.6875 42.367188 77.6875 42.101562 C 77.6875 41.835938 77.792969 41.582031 77.980469 41.394531 Z M 96.363281 59.78125 L 97.777344 58.363281 C 97.964844 58.175781 98.21875 58.070312 98.484375 58.070312 C 98.75 58.070312 99.003906 58.175781 99.191406 58.363281 L 102.023438 61.191406 C 102.210938 61.378906 102.316406 61.632812 102.316406 61.898438 C 102.316406 62.164062 102.210938 62.417969 102.023438 62.605469 L 100.605469 64.019531 C 100.417969 64.207031 100.164062 64.3125 99.898438 64.3125 C 99.632812 64.3125 99.378906 64.207031 99.191406 64.019531 L 96.363281 61.191406 C 96.175781 61.003906 96.070312 60.75 96.070312 60.484375 C 96.070312 60.21875 96.175781 59.964844 96.363281 59.777344 Z M 79.394531 64.019531 L 77.980469 62.605469 C 77.792969 62.417969 77.6875 62.164062 77.6875 61.898438 C 77.6875 61.632812 77.792969 61.378906 77.980469 61.191406 L 80.808594 58.363281 C 80.996094 58.175781 81.25 58.070312 81.515625 58.070312 C 81.78125 58.070312 82.035156 58.175781 82.222656 58.363281 L 83.636719 59.777344 C 83.824219 59.964844 83.929688 60.21875 83.929688 60.484375 C 83.929688 60.75 83.824219 61.003906 83.636719 61.191406 L 80.808594 64.019531 C 80.621094 64.207031 80.367188 64.3125 80.101562 64.3125 C 79.835938 64.3125 79.582031 64.207031 79.394531 64.019531 Z M 97.78125 45.636719 L 96.363281 44.222656 C 96.175781 44.035156 96.070312 43.78125 96.070312 43.515625 C 96.070312 43.25 96.175781 42.996094 96.363281 42.808594 L 99.191406 39.980469 C 99.378906 39.792969 99.632812 39.6875 99.898438 39.6875 C 100.164062 39.6875 100.417969 39.792969 100.605469 39.980469 L 102.023438 41.394531 C 102.210938 41.582031 102.316406 41.835938 102.316406 42.101562 C 102.316406 42.367188 102.210938 42.621094 102.023438 42.808594 L 99.191406 45.636719 C 99.003906 45.824219 98.75 45.929688 98.484375 45.929688 C 98.21875 45.929688 97.964844 45.824219 97.777344 45.636719 Z M 106 51 L 106 53 C 106 53.554688 105.554688 54 105 54 L 101 54 C 100.734375 54 100.480469 53.894531 100.292969 53.707031 C 100.105469 53.519531 100 53.265625 100 53 L 100 51 C 100 50.445312 100.445312 50 101 50 L 105 50 C 105.554688 50 106 50.445312 106 51 Z M 80 51 L 80 53 C 80 53.554688 79.554688 54 79 54 L 75 54 C 74.734375 54 74.480469 53.894531 74.292969 53.707031 C 74.105469 53.519531 74 53.265625 74 53 L 74 51 C 74 50.445312 74.445312 50 75 50 L 79 50 C 79.554688 50 80 50.445312 80 51 Z M 80 51"/><path style="stroke:none;fill-rule:nonzero;fill:#000;fill-opacity:.3" d="M 52 104 L 76 104 L 76 106 L 52 106 Z M 52 104"/><use mask="url(#mask0)" transform="matrix(1,0,0,1,-8,-16)" xlink:href="#surface14588"/><path style="stroke:none;fill-rule:nonzero;fill:#fff;fill-opacity:1" d="M 36 56 C 28.269531 56 22 62.269531 22 70 C 22 77.730469 28.269531 84 36 84 C 43.730469 84 50 77.730469 50 70 C 50 69.171875 49.925781 68.34375 49.78125 67.53125 C 48.824219 71.890625 44.964844 75 40.5 75 C 35.253906 75 31 70.746094 31 65.5 C 31 61.035156 34.109375 57.175781 38.46875 56.21875 C 37.65625 56.074219 36.828125 56 36 56 Z M 36 56"/></g></svg>