<svg xmlns="http://www.w3.org/2000/svg" xmlns:svg="http://www.w3.org/2000/svg" xmlns:xlink="http://www.w3.org/1999/xlink" style="display:inline;enable-background:new" id="svg11300" width="192" height="152" version="1.0" viewBox="0 0 192 152"><title id="title4162">Adwaita Icon Template</title><defs id="defs3"><linearGradient id="linearGradient1504"><stop id="stop1490" offset="0" style="stop-color:#0a85e1;stop-opacity:1"/><stop style="stop-color:#30b5e5;stop-opacity:1" id="stop1492" offset=".198"/><stop style="stop-color:#1ccfdc;stop-opacity:1" id="stop1494" offset=".293"/><stop style="stop-color:#fbf6a3;stop-opacity:1" id="stop1496" offset=".506"/><stop id="stop1498" offset=".69" style="stop-color:#eb5ec3;stop-opacity:1"/><stop style="stop-color:#5150e7;stop-opacity:1" id="stop1500" offset=".853"/><stop id="stop1502" offset="1" style="stop-color:#1a1ebd;stop-opacity:1"/></linearGradient><linearGradient id="linearGradient2312"><stop id="stop2308" offset="0" style="stop-color:#3d3846;stop-opacity:1"/><stop id="stop2310" offset="1" style="stop-color:#9a9996;stop-opacity:1"/></linearGradient><linearGradient id="linearGradient1697"><stop id="stop1685" offset="0" style="stop-color:#5e5c64;stop-opacity:1"/><stop style="stop-color:#c0bfbc;stop-opacity:1" id="stop1687" offset=".036"/><stop id="stop1689" offset=".071" style="stop-color:#77767b;stop-opacity:1"/><stop style="stop-color:#77767b;stop-opacity:1" id="stop1691" offset=".929"/><stop id="stop1693" offset=".964" style="stop-color:#c0bfbc;stop-opacity:1"/><stop id="stop1695" offset="1" style="stop-color:#5e5c64;stop-opacity:1"/></linearGradient><linearGradient id="linearGradient3379"><stop style="stop-color:#c0bfbc;stop-opacity:1" id="stop3375" offset="0"/><stop style="stop-color:#77767b;stop-opacity:1" id="stop3377" offset="1"/></linearGradient><linearGradient id="linearGradient278" x1="42" x2="42" y1="290" y2="274" gradientTransform="matrix(0.4,0,0,1,38.4,0)" gradientUnits="userSpaceOnUse" xlink:href="#linearGradient2312"/><linearGradient id="linearGradient280" x1="66" x2="66" y1="284" y2="288" gradientTransform="translate(10,3.999994)" gradientUnits="userSpaceOnUse" xlink:href="#linearGradient3379"/><linearGradient id="linearGradient282" x1="48" x2="464" y1="90.857" y2="90.857" gradientTransform="matrix(0.26923078,0,0,0.07446809,-4.9230769,257.23404)" gradientUnits="userSpaceOnUse" xlink:href="#linearGradient1697"/><linearGradient id="linearGradient1485" x1="-106.24" x2="-21.76" y1="-208.824" y2="-251.176" gradientTransform="matrix(1.0416668,0,0,1.1333332,2.6666773,28.666642)" gradientUnits="userSpaceOnUse" xlink:href="#linearGradient1504"/></defs><metadata id="metadata4"/><g style="display:inline" id="layer1" transform="translate(8,-156)"><g style="display:inline" id="layer4"><rect style="display:inline;overflow:visible;visibility:visible;fill:#f0f0f0;fill-opacity:0;fill-rule:nonzero;stroke:none;stroke-width:.5;marker:none;enable-background:accumulate" id="hicolor" width="128" height="128" x="0" y="172"/><rect id="symbolic" width="16" height="16" x="160" y="172" style="display:inline;overflow:visible;visibility:visible;fill:#f0f0f0;fill-opacity:0;fill-rule:nonzero;stroke:none;stroke-width:.5;marker:none;enable-background:accumulate"/></g><g style="display:none" id="layer2"><rect id="128" width="128" height="128" x="0" y="172" style="display:inline;overflow:visible;visibility:visible;fill:#f0f0f0;fill-opacity:1;fill-rule:nonzero;stroke:none;stroke-width:.5;marker:none;enable-background:accumulate"/><rect style="display:inline;overflow:visible;visibility:visible;fill:#f0f0f0;fill-opacity:1;fill-rule:nonzero;stroke:none;stroke-width:.5;marker:none;enable-background:accumulate" id="16" width="16" height="16" x="160" y="172"/><text id="text863" x="0" y="167" xml:space="preserve" style="font-style:normal;font-variant:normal;font-weight:700;font-stretch:normal;font-size:4px;line-height:125%;font-family:Cantarell;-inkscape-font-specification:'Cantarell, Bold';text-align:start;writing-mode:lr-tb;text-anchor:start;display:inline;fill:#000;fill-opacity:1;stroke:none;stroke-width:.332649;enable-background:new"><tspan id="tspan861" x="0" y="167" style="font-size:4px;stroke-width:.332649">Hicolor</tspan></text><text style="font-style:normal;font-variant:normal;font-weight:700;font-stretch:normal;font-size:4px;line-height:125%;font-family:Cantarell;-inkscape-font-specification:'Cantarell, Bold';text-align:start;writing-mode:lr-tb;text-anchor:start;display:inline;fill:#000;fill-opacity:1;stroke:none;stroke-width:.332649;enable-background:new" id="text867" x="160" y="167" xml:space="preserve"><tspan style="font-size:4px;stroke-width:.332649" id="tspan865" x="160" y="167">Symbolic</tspan></text></g><g style="display:inline" id="layer9"><rect style="display:inline;fill:url(#linearGradient278);fill-opacity:1;stroke:none;stroke-width:.182574;stroke-linecap:butt;stroke-linejoin:miter;stroke-miterlimit:4;stroke-dasharray:none;stroke-dashoffset:0;stroke-opacity:1;marker:none;marker-start:none;marker-mid:none;marker-end:none;paint-order:normal;enable-background:new" id="rect224" width="24" height="26" x="52" y="264"/><path style="display:inline;fill:url(#linearGradient280);fill-opacity:1;stroke:none;stroke-width:5;stroke-linecap:square;stroke-linejoin:miter;stroke-miterlimit:4;stroke-dasharray:none;stroke-dashoffset:0;stroke-opacity:1;enable-background:new" id="path226" d="m 48.000002,287.99999 h 32.0625 c 1.9375,0 3.937498,2 3.937498,4 H 44.000002 c 0,-2 2,-4 4,-4 z"/><rect id="rect228" width="112" height="28" x="8" y="248" rx="8" ry="8" style="display:inline;fill:url(#linearGradient282);fill-opacity:1;stroke:none;stroke-width:.25;stroke-linecap:butt;stroke-linejoin:miter;stroke-miterlimit:4;stroke-dasharray:none;stroke-dashoffset:0;stroke-opacity:1;marker:none;marker-start:none;marker-mid:none;marker-end:none;paint-order:normal;enable-background:new"/><rect id="rect230" width="112" height="80" x="8" y="192" rx="8" ry="8" style="display:inline;fill:#c0bfbc;fill-opacity:1;stroke:none;stroke-width:.2358;stroke-linecap:butt;stroke-linejoin:miter;stroke-miterlimit:4;stroke-dasharray:none;stroke-dashoffset:0;stroke-opacity:1;marker:none;marker-start:none;marker-mid:none;marker-end:none;paint-order:normal;enable-background:new"/><rect id="rect232" width="104" height="72" x="12" y="-268" rx="4.364" ry="4" transform="scale(1,-1)" style="display:inline;vector-effect:none;fill:#241f31;fill-opacity:1;stroke:none;stroke-width:.0117095px;stroke-linecap:butt;stroke-linejoin:miter;stroke-miterlimit:4;stroke-dasharray:none;stroke-dashoffset:0;stroke-opacity:1;marker:none;marker-start:none;marker-mid:none;marker-end:none;paint-order:normal;enable-background:new"/><rect id="rect1467" width="100" height="68" x="-114" y="-266" rx="2" ry="2" transform="scale(-1)" style="display:inline;vector-effect:none;fill:url(#linearGradient1485);fill-opacity:1;stroke:none;stroke-width:.011211px;stroke-linecap:butt;stroke-linejoin:miter;stroke-miterlimit:4;stroke-dasharray:none;stroke-dashoffset:0;stroke-opacity:1;marker:none;marker-start:none;marker-mid:none;marker-end:none;paint-order:normal;enable-background:new"/><g style="fill:#fff;fill-opacity:1;stroke-width:.5" id="g1519" fill="#2e3436" transform="matrix(1.9999999,0,0,1.9999999,74.000002,208)"><path style="line-height:normal;-inkscape-font-specification:Sans;font-variant-ligatures:normal;font-variant-position:normal;font-variant-caps:normal;font-variant-numeric:normal;font-variant-alternates:normal;font-feature-settings:normal;text-indent:0;text-align:start;text-decoration:none;text-decoration-line:none;text-decoration-style:solid;text-decoration-color:#000;text-transform:none;text-orientation:mixed;white-space:normal;shape-padding:0;isolation:auto;mix-blend-mode:normal;solid-color:#000;solid-opacity:1;fill:#fff;fill-opacity:1;stroke-width:.25;marker:none" id="path1515" d="m 8,4.006 c -2.195,0 -4,1.805 -4,4 0,2.195 1.805,4 4,4 2.195,0 4,-1.805 4,-4 0,-2.195 -1.805,-4 -4,-4 z" color="#bebebe" font-family="Sans" font-weight="400" overflow="visible"/><path style="fill:#fff;fill-opacity:1;stroke-width:.5" id="path1517" d="m 7.5,0 h 1 C 8.777,0 9,0.223 9,0.5 v 2 C 9,2.777 8.777,3 8.5,3 h -1 A 0.499,0.499 0 0 1 7,2.5 v -2 C 7,0.223 7.223,0 7.5,0 Z m 0,13 h 1 C 8.777,13 9,13.223 9,13.5 v 2 C 9,15.777 8.777,16 8.5,16 h -1 A 0.499,0.499 0 0 1 7,15.5 v -2 C 7,13.223 7.223,13 7.5,13 Z M 1.99,2.697 2.697,1.99 a 0.499,0.499 0 0 1 0.707,0 l 1.414,1.414 a 0.499,0.499 0 0 1 0,0.707 L 4.111,4.818 a 0.499,0.499 0 0 1 -0.707,0 L 1.99,3.404 a 0.499,0.499 0 0 1 0,-0.707 z m 9.192,9.193 0.707,-0.708 a 0.499,0.499 0 0 1 0.707,0 l 1.415,1.414 a 0.499,0.499 0 0 1 0,0.707 l -0.708,0.707 a 0.499,0.499 0 0 1 -0.707,0 l -1.414,-1.414 a 0.499,0.499 0 0 1 0,-0.707 z M 2.697,14.01 1.99,13.303 a 0.499,0.499 0 0 1 0,-0.707 l 1.414,-1.414 a 0.499,0.499 0 0 1 0.707,0 l 0.707,0.707 a 0.499,0.499 0 0 1 0,0.707 L 3.404,14.01 a 0.499,0.499 0 0 1 -0.707,0 z M 11.89,4.818 11.182,4.111 a 0.499,0.499 0 0 1 0,-0.707 L 12.596,1.99 a 0.499,0.499 0 0 1 0.707,0 l 0.708,0.707 a 0.499,0.499 0 0 1 0,0.707 l -1.415,1.414 a 0.499,0.499 0 0 1 -0.707,0 z M 16,7.5 v 1 C 16,8.777 15.777,9 15.5,9 h -2 A 0.499,0.499 0 0 1 13,8.5 v -1 C 13,7.223 13.223,7 13.5,7 h 2 C 15.777,7 16,7.223 16,7.5 Z m -13,0 v 1 C 3,8.777 2.777,9 2.5,9 h -2 A 0.499,0.499 0 0 1 0,8.5 v -1 C 0,7.223 0.223,7 0.5,7 h 2 C 2.777,7 3,7.223 3,7.5 Z"/></g><rect style="fill:#000;fill-opacity:.3;stroke-width:3.77953;stroke-linejoin:round" id="rect2043" width="24" height="2" x="52" y="276"/><path id="path2349" d="M 161 174 A 1.0001 1.0001 0 0 0 160 175 L 160 184 A 1.0001 1.0001 0 0 0 161 185 L 175 185 A 1.0001 1.0001 0 0 0 176 184 L 176 175 A 1.0001 1.0001 0 0 0 175 174 L 161 174 z M 162 176 L 174 176 L 174 183 L 162 183 L 162 176 z" style="color:#000;font-style:normal;font-variant:normal;font-weight:400;font-stretch:normal;font-size:medium;line-height:normal;font-family:sans-serif;font-variant-ligatures:normal;font-variant-position:normal;font-variant-caps:normal;font-variant-numeric:normal;font-variant-alternates:normal;font-variant-east-asian:normal;font-feature-settings:normal;font-variation-settings:normal;text-indent:0;text-align:start;text-decoration:none;text-decoration-line:none;text-decoration-style:solid;text-decoration-color:#000;letter-spacing:normal;word-spacing:normal;text-transform:none;writing-mode:lr-tb;direction:ltr;text-orientation:mixed;dominant-baseline:auto;baseline-shift:baseline;text-anchor:start;white-space:normal;shape-padding:0;shape-margin:0;inline-size:0;clip-rule:nonzero;display:inline;overflow:visible;visibility:visible;isolation:auto;mix-blend-mode:normal;color-interpolation:sRGB;color-interpolation-filters:linearRGB;solid-color:#000;solid-opacity:1;vector-effect:none;fill:#3d3846;fill-opacity:1;fill-rule:nonzero;stroke:none;stroke-width:2;stroke-linecap:butt;stroke-linejoin:round;stroke-miterlimit:4;stroke-dasharray:none;stroke-dashoffset:0;stroke-opacity:1;color-rendering:auto;image-rendering:auto;shape-rendering:auto;text-rendering:auto;enable-background:accumulate;stop-color:#000;stop-opacity:1;opacity:1"/><rect id="rect2342" width="6" height="1" x="165" y="186" style="fill:#3d3846;fill-opacity:1;stroke:none;stroke-width:2;stroke-linejoin:round;stroke-opacity:1"/><rect id="rect2363" width="6" height="7" x="162" y="-183" transform="scale(1,-1)" style="opacity:.35;fill:#3d3846;fill-opacity:1;stroke:none;stroke-width:2;stroke-linejoin:round;stroke-opacity:1"/><path id="circle1359" d="M 36,228 A 13.999603,13.999603 0 0 0 22,242 13.999603,13.999603 0 0 0 36,256 13.999603,13.999603 0 0 0 50,242 13.999603,13.999603 0 0 0 49.779297,239.5293 9.4998007,9.4998007 0 0 1 40.5,247 9.4998007,9.4998007 0 0 1 31,237.5 9.4998007,9.4998007 0 0 1 38.470703,228.2207 13.999603,13.999603 0 0 0 36,228 Z" style="opacity:1;fill:#fff;stroke-width:2;stroke-linejoin:round;fill-opacity:1"/><circle id="circle2385-6" cx="165" cy="181" r="1" style="display:inline;fill:#3d3846;fill-opacity:1;stroke-width:2;stroke-linejoin:round;enable-background:new"/><circle style="display:inline;fill:#3d3846;fill-opacity:1;stroke-width:2;stroke-linejoin:round;enable-background:new" id="circle2387-7" cx="171" cy="178" r="1"/></g><g style="display:none" id="layer3"><circle style="display:inline;opacity:.1;vector-effect:none;fill:none;fill-opacity:1;stroke:#000;stroke-width:.99;stroke-linecap:butt;stroke-linejoin:miter;stroke-miterlimit:4;stroke-dasharray:.99,.99;stroke-dashoffset:0;stroke-opacity:1;marker:none;marker-start:none;marker-mid:none;marker-end:none;paint-order:normal;enable-background:new" id="circle2892" cx="64" cy="236" r="59.504"/><rect style="display:inline;opacity:.1;vector-effect:none;fill:none;fill-opacity:1;stroke:#000;stroke-width:.99;stroke-linecap:butt;stroke-linejoin:miter;stroke-miterlimit:4;stroke-dasharray:.99,.99;stroke-dashoffset:0;stroke-opacity:1;marker:none;marker-start:none;marker-mid:none;marker-end:none;paint-order:normal;enable-background:new" id="rect2894" width="87.01" height="111.01" x="20.495" y="180.495" rx="8.701" ry="7.929"/><rect style="display:inline;opacity:.1;vector-effect:none;fill:none;fill-opacity:1;stroke:#000;stroke-width:.99;stroke-linecap:butt;stroke-linejoin:miter;stroke-miterlimit:4;stroke-dasharray:.99,.99;stroke-dashoffset:0;stroke-opacity:1;marker:none;marker-start:none;marker-mid:none;marker-end:none;paint-order:normal;enable-background:new" id="rect2896" width="103.01" height="103.01" x="12.495" y="184.495" rx="7.924" ry="7.924"/><rect style="display:inline;opacity:.1;vector-effect:none;fill:none;fill-opacity:1;stroke:#000;stroke-width:.99;stroke-linecap:butt;stroke-linejoin:miter;stroke-miterlimit:4;stroke-dasharray:.99,.99;stroke-dashoffset:0;stroke-opacity:1;marker:none;marker-start:none;marker-mid:none;marker-end:none;paint-order:normal;enable-background:new" id="rect2898" width="111.01" height="87.01" x="8.495" y="200.495" rx="7.929" ry="8.701"/><path style="display:inline;fill:none;stroke:#62a0ea;stroke-width:2;stroke-linecap:butt;stroke-linejoin:miter;stroke-miterlimit:4;stroke-dasharray:none;stroke-opacity:1;enable-background:new" id="path2900" d="M 2.6203015e-5,288.99999 H 128.00003"/></g></g></svg>